<svg width="74" height="74" viewBox="0 0 74 74" fill="none" xmlns="http://www.w3.org/2000/svg">
<g clip-path="url(#clip0_156_1067)">
<rect width="74" height="74" rx="12" fill="#EA5A06"/>
<path d="M37.1443 51.7312C36.34 51.7312 35.5455 51.689 34.7656 51.607C26.9871 50.7824 20.42 45.8571 15.0741 36.8286C20.9595 26.8936 28.3162 21.926 37.1443 21.926C45.6414 21.926 52.775 26.5284 58.5451 35.7308M57.2526 57.196L61.6667 61.6668M32.2398 36.8286C32.2398 38.1461 32.7566 39.4096 33.6763 40.3412C34.5961 41.2728 35.8436 41.7962 37.1443 41.7962C38.4451 41.7962 39.6926 41.2728 40.6123 40.3412C41.5321 39.4096 42.0488 38.1461 42.0488 36.8286C42.0488 35.5112 41.5321 34.2476 40.6123 33.316C39.6926 32.3845 38.4451 31.8611 37.1443 31.8611C35.8436 31.8611 34.5961 32.3845 33.6763 33.316C32.7566 34.2476 32.2398 35.5112 32.2398 36.8286ZM44.5011 51.7312C44.5011 53.7074 45.2762 55.6027 46.6558 57.0001C48.0355 58.3975 49.9067 59.1825 51.8578 59.1825C53.8089 59.1825 55.6802 58.3975 57.0598 57.0001C58.4395 55.6027 59.2146 53.7074 59.2146 51.7312C59.2146 49.755 58.4395 47.8597 57.0598 46.4624C55.6802 45.065 53.8089 44.2799 51.8578 44.2799C49.9067 44.2799 48.0355 45.065 46.6558 46.4624C45.2762 47.8597 44.5011 49.755 44.5011 51.7312Z" stroke="white" stroke-width="3" stroke-linecap="round" stroke-linejoin="round"/>
</g>
<defs>
<clipPath id="clip0_156_1067">
<rect width="74" height="74" fill="white"/>
</clipPath>
</defs>
</svg>
