<svg width="360" height="150" viewBox="0 0 360 150" fill="none" xmlns="http://www.w3.org/2000/svg">
<path opacity="0.2" d="M180 149.845L399 68.3432L399 -110.002L-38.9999 -110.002L-38.9999 68.3432L180 149.845Z" fill="#D7D7D7"/>
<path opacity="0.3" d="M180 129.37L399 47.8686L399 -130.476L-38.9999 -130.476L-38.9999 47.8686L180 129.37Z" fill="#D7D7D7"/>
<path opacity="0.5" d="M180 108.896L399 27.394L399 -150.951L-38.9999 -150.951L-38.9999 27.394L180 108.896Z" fill="#D7D7D7"/>
<path opacity="0.7" d="M180 88.4209L399 6.9194L399 -171.426L-38.9999 -171.426L-38.9999 6.91936L180 88.4209Z" fill="#D7D7D7"/>
<path d="M180 67.9463L399 -13.5552L399 -191.9L-38.9999 -191.9L-38.9999 -13.5552L180 67.9463Z" fill="#D3D3D3"/>
</svg>
