<svg width="74" height="74" viewBox="0 0 74 74" fill="none" xmlns="http://www.w3.org/2000/svg">
<g clip-path="url(#clip0_156_1047)">
<rect width="74" height="74" rx="12" fill="#EA5A06"/>
<path d="M28.0556 57.4444L37 37L20.3889 52.3333M14 37C14 40.0204 14.5949 43.0112 15.7508 45.8017C16.9066 48.5922 18.6008 51.1277 20.7365 53.2635C22.8723 55.3992 25.4078 57.0934 28.1983 58.2492C30.9888 59.4051 33.9796 60 37 60C40.0204 60 43.0112 59.4051 45.8017 58.2492C48.5922 57.0934 51.1277 55.3992 53.2635 53.2635C55.3992 51.1277 57.0934 48.5922 58.2492 45.8017C59.4051 43.0112 60 40.0204 60 37C60 33.9796 59.4051 30.9888 58.2492 28.1983C57.0934 25.4078 55.3992 22.8723 53.2635 20.7365C51.1277 18.6008 48.5922 16.9066 45.8017 15.7508C43.0112 14.5949 40.0204 14 37 14C33.9796 14 30.9888 14.5949 28.1983 15.7508C25.4078 16.9066 22.8723 18.6008 20.7365 20.7365C18.6008 22.8723 16.9066 25.4078 15.7508 28.1983C14.5949 30.9888 14 33.9796 14 37ZM24.2222 37C24.2222 40.3889 25.5684 43.639 27.9647 46.0353C30.361 48.4316 33.6111 49.7778 37 49.7778C40.3889 49.7778 43.639 48.4316 46.0353 46.0353C48.4316 43.639 49.7778 40.3889 49.7778 37C49.7778 33.6111 48.4316 30.361 46.0353 27.9647C43.639 25.5684 40.3889 24.2222 37 24.2222C33.6111 24.2222 30.361 25.5684 27.9647 27.9647C25.5684 30.361 24.2222 33.6111 24.2222 37ZM34.4444 37C34.4444 37.6778 34.7137 38.3278 35.193 38.8071C35.6722 39.2863 36.3222 39.5556 37 39.5556C37.6778 39.5556 38.3278 39.2863 38.8071 38.8071C39.2863 38.3278 39.5556 37.6778 39.5556 37C39.5556 36.3222 39.2863 35.6722 38.8071 35.193C38.3278 34.7137 37.6778 34.4444 37 34.4444C36.3222 34.4444 35.6722 34.7137 35.193 35.193C34.7137 35.6722 34.4444 36.3222 34.4444 37Z" stroke="white" stroke-width="3" stroke-linecap="round" stroke-linejoin="round"/>
</g>
<defs>
<clipPath id="clip0_156_1047">
<rect width="74" height="74" fill="white"/>
</clipPath>
</defs>
</svg>
