<svg width="20" height="20" viewBox="0 0 20 20" fill="none" xmlns="http://www.w3.org/2000/svg">
<path d="M10 6V19M10 6C9.63828 4.5094 9.01545 3.23501 8.21274 2.34311C7.41003 1.45121 6.46469 0.983141 5.5 0.999949C4.83696 0.999949 4.20107 1.26334 3.73223 1.73218C3.26339 2.20102 3 2.83691 3 3.49995C3 4.16299 3.26339 4.79887 3.73223 5.26772C4.20107 5.73656 4.83696 5.99995 5.5 5.99995M10 6C10.3617 4.5094 10.9846 3.23501 11.7873 2.34311C12.59 1.45121 13.5353 0.983141 14.5 0.999949C15.163 0.999949 15.7989 1.26334 16.2678 1.73218C16.7366 2.20102 17 2.83691 17 3.49995C17 4.16299 16.7366 4.79887 16.2678 5.26772C15.7989 5.73656 15.163 5.99995 14.5 5.99995M17 10V17C17 17.5304 16.7893 18.0391 16.4142 18.4142C16.0391 18.7893 15.5304 19 15 19H5C4.46957 19 3.96086 18.7893 3.58579 18.4142C3.21071 18.0391 3 17.5304 3 17V10M1 7C1 6.73478 1.10536 6.48043 1.29289 6.29289C1.48043 6.10536 1.73478 6 2 6H18C18.2652 6 18.5196 6.10536 18.7071 6.29289C18.8946 6.48043 19 6.73478 19 7V9C19 9.26522 18.8946 9.51957 18.7071 9.70711C18.5196 9.89464 18.2652 10 18 10H2C1.73478 10 1.48043 9.89464 1.29289 9.70711C1.10536 9.51957 1 9.26522 1 9V7Z" stroke="#5E5E5E" stroke-width="2" stroke-linecap="round" stroke-linejoin="round"/>
</svg>
