<svg width="3" height="424" viewBox="0 0 3 424" fill="none" xmlns="http://www.w3.org/2000/svg">
<rect width="3" height="4" fill="white"/>
<rect y="21" width="3" height="4" fill="white"/>
<rect y="42" width="3" height="4" fill="white"/>
<rect y="63" width="3" height="4" fill="white"/>
<rect y="84" width="3" height="4" fill="white"/>
<rect y="105" width="3" height="4" fill="white"/>
<rect y="126" width="3" height="4" fill="white"/>
<rect y="147" width="3" height="4" fill="white"/>
<rect y="168" width="3" height="4" fill="white"/>
<rect y="189" width="3" height="4" fill="white"/>
<rect y="210" width="3" height="4" fill="white"/>
<rect y="231" width="3" height="4" fill="white"/>
<rect y="252" width="3" height="4" fill="white"/>
<rect y="273" width="3" height="4" fill="white"/>
<rect y="294" width="3" height="4" fill="white"/>
<rect y="315" width="3" height="4" fill="white"/>
<rect y="336" width="3" height="4" fill="white"/>
<rect y="357" width="3" height="4" fill="white"/>
<rect y="378" width="3" height="4" fill="white"/>
<rect y="399" width="3" height="4" fill="white"/>
<rect y="420" width="3" height="4" fill="white"/>
</svg>
