<svg width="40" height="50" viewBox="0 0 40 50" fill="none" xmlns="http://www.w3.org/2000/svg">
<path d="M0 0H40V50L20 40L0 50V0Z" fill="#EA5A06"/>
<path d="M14 29V28C14 26.9391 14.4214 25.9217 15.1716 25.1716C15.9217 24.4214 16.9391 24 18 24H22C23.0609 24 24.0783 24.4214 24.8284 25.1716C25.5786 25.9217 26 26.9391 26 28V29M17 18C17 18.7956 17.3161 19.5587 17.8787 20.1213C18.4413 20.6839 19.2044 21 20 21C20.7956 21 21.5587 20.6839 22.1213 20.1213C22.6839 19.5587 23 18.7956 23 18C23 17.2044 22.6839 16.4413 22.1213 15.8787C21.5587 15.3161 20.7956 15 20 15C19.2044 15 18.4413 15.3161 17.8787 15.8787C17.3161 16.4413 17 17.2044 17 18ZM11 13C11 12.4696 11.2107 11.9609 11.5858 11.5858C11.9609 11.2107 12.4696 11 13 11H27C27.5304 11 28.0391 11.2107 28.4142 11.5858C28.7893 11.9609 29 12.4696 29 13V27C29 27.5304 28.7893 28.0391 28.4142 28.4142C28.0391 28.7893 27.5304 29 27 29H13C12.4696 29 11.9609 28.7893 11.5858 28.4142C11.2107 28.0391 11 27.5304 11 27V13Z" stroke="white" stroke-width="2" stroke-linecap="round" stroke-linejoin="round"/>
</svg>
