<svg width="40" height="50" viewBox="0 0 40 50" fill="none" xmlns="http://www.w3.org/2000/svg">
<path d="M0 0H40V50L20 40L0 50V0Z" fill="#EA5A06"/>
<path d="M17 24L23 18M18 18.5C18 18.7761 17.7761 19 17.5 19C17.2239 19 17 18.7761 17 18.5C17 18.2239 17.2239 18 17.5 18C17.7761 18 18 18.2239 18 18.5ZM23 23.5C23 23.7761 22.7761 24 22.5 24C22.2239 24 22 23.7761 22 23.5C22 23.2239 22.2239 23 22.5 23C22.7761 23 23 23.2239 23 23.5ZM11 21C11 22.1819 11.2328 23.3522 11.6851 24.4442C12.1374 25.5361 12.8003 26.5282 13.636 27.364C14.4718 28.1997 15.4639 28.8626 16.5558 29.3149C17.6478 29.7672 18.8181 30 20 30C21.1819 30 22.3522 29.7672 23.4442 29.3149C24.5361 28.8626 25.5282 28.1997 26.364 27.364C27.1997 26.5282 27.8626 25.5361 28.3149 24.4442C28.7672 23.3522 29 22.1819 29 21C29 19.8181 28.7672 18.6478 28.3149 17.5558C27.8626 16.4639 27.1997 15.4718 26.364 14.636C25.5282 13.8003 24.5361 13.1374 23.4442 12.6851C22.3522 12.2328 21.1819 12 20 12C18.8181 12 17.6478 12.2328 16.5558 12.6851C15.4639 13.1374 14.4718 13.8003 13.636 14.636C12.8003 15.4718 12.1374 16.4639 11.6851 17.5558C11.2328 18.6478 11 19.8181 11 21Z" stroke="white" stroke-width="2" stroke-linecap="round" stroke-linejoin="round"/>
</svg>
