<svg width="40" height="50" viewBox="0 0 40 50" fill="none" xmlns="http://www.w3.org/2000/svg">
<path d="M0 0H40V50L20 40L0 50V0Z" fill="#EA5A06"/>
<path d="M24 11V15M16 11V15M12 19H28M15 22H15.013M18.01 22H18.015M21.01 22H21.015M24.015 22H24.02M21.015 25H21.02M15.01 25H15.015M18.01 25H18.015M12 15C12 14.4696 12.2107 13.9609 12.5858 13.5858C12.9609 13.2107 13.4696 13 14 13H26C26.5304 13 27.0391 13.2107 27.4142 13.5858C27.7893 13.9609 28 14.4696 28 15V27C28 27.5304 27.7893 28.0391 27.4142 28.4142C27.0391 28.7893 26.5304 29 26 29H14C13.4696 29 12.9609 28.7893 12.5858 28.4142C12.2107 28.0391 12 27.5304 12 27V15Z" stroke="white" stroke-width="2" stroke-linecap="round" stroke-linejoin="round"/>
</svg>
