<?xml version="1.0" standalone="no"?>
<!DOCTYPE svg PUBLIC "-//W3C//DTD SVG 20010904//EN"
 "http://www.w3.org/TR/2001/REC-SVG-20010904/DTD/svg10.dtd">
<svg version="1.0" xmlns="http://www.w3.org/2000/svg"
 width="317.000000pt" height="317.000000pt" viewBox="0 0 317.000000 317.000000"
 preserveAspectRatio="xMidYMid meet">
<metadata>
Created by potrace 1.14, written by Peter Selinger 2001-2017
</metadata>
<g transform="translate(0.000000,317.000000) scale(0.100000,-0.100000)"
fill="#000000" stroke="none">
<path d="M1500 2003 c-47 -19 -67 -51 -143 -233 -36 -85 -108 -257 -161 -382
-53 -125 -96 -229 -96 -233 0 -3 66 -4 146 -3 l146 3 99 270 c120 329 118 324
129 305 4 -8 54 -142 110 -297 l103 -283 148 0 148 0 -29 68 c-15 37 -87 207
-159 377 -72 171 -139 326 -149 345 -27 54 -89 81 -182 79 -41 -1 -91 -9 -110
-16z"/>
<path d="M65 1737 c31 -22 151 -89 210 -119 103 -52 145 -57 469 -58 246 0
303 -3 327 -16 31 -15 48 -47 58 -104 2 -11 68 150 74 179 7 33 -4 74 -26 95
-35 35 -51 36 -594 36 -453 0 -534 -2 -518 -13z"/>
<path d="M2083 1735 c-38 -16 -62 -58 -58 -103 3 -34 60 -179 78 -197 7 -7 7
-6 3 3 -11 18 11 75 37 97 24 22 6 21 467 28 212 4 233 6 303 34 43 18 257
141 257 149 0 2 -237 4 -527 4 -427 -1 -534 -3 -560 -15z"/>
<path d="M536 1499 c2 -4 48 -32 101 -63 119 -69 130 -76 166 -100 18 -12 50
-20 86 -21 81 -3 116 -30 130 -99 6 -26 10 -20 44 62 39 97 44 130 25 165 -15
29 -47 57 -67 58 -66 5 -488 3 -485 -2z"/>
<path d="M2186 1489 c-16 -8 -37 -30 -47 -48 -15 -28 -15 -38 -4 -79 7 -26 26
-76 43 -112 27 -59 30 -62 31 -34 1 36 48 93 78 95 10 1 37 2 59 4 31 1 75 21
180 83 77 44 147 87 157 94 29 21 -457 19 -497 -3z"/>
</g>
</svg>
